<svg width="693" height="693" viewBox="0 0 693 693" fill="none" xmlns="http://www.w3.org/2000/svg">
<g clip-path="url(#clip0)">
<mask id="mask0" mask-type="alpha" maskUnits="userSpaceOnUse" x="-55" y="-55" width="803" height="803">
<circle cx="346.447" cy="346.447" r="346.537" transform="rotate(-10 346.447 346.447)" fill="#C4C4C4"/>
</mask>
<g mask="url(#mask0)">
<rect x="-84.3919" y="70.5335" width="749.447" height="218.865" transform="rotate(-10 -84.3919 70.5335)" fill="#BCFBF7"/>
<rect x="-52.1448" y="253.416" width="749.447" height="232.13" transform="rotate(-10 -52.1448 253.416)" fill="#8BDCFF"/>
<rect x="-14.7151" y="465.69" width="749.447" height="232.13" transform="rotate(-10 -14.7151 465.69)" fill="#2ABDEC"/>
<rect x="-0.318909" y="547.334" width="749.447" height="232.13" transform="rotate(-10 -0.318909 547.334)" fill="#00789E"/>
<rect x="-13.3262" y="148.92" width="464.259" height="39.7937" rx="11" transform="rotate(-10 -13.3262 148.92)" fill="#CCFCFF"/>
<rect x="39.1232" y="102.631" width="258.659" height="56.3744" rx="11" transform="rotate(-10 39.1232 102.631)" fill="#CCFCFF"/>
<rect x="250.435" y="78.8404" width="109.433" height="23.213" rx="11" transform="rotate(-10 250.435 78.8404)" fill="#BCFBF7"/>
<rect x="427.922" y="168.767" width="222.181" height="36.4775" rx="11" transform="rotate(-10 427.922 168.767)" fill="#BCFBF7"/>
<rect x="11.6562" y="80.536" width="351.511" height="39.7937" rx="11" transform="rotate(-10 11.6562 80.536)" fill="#CCFCFF"/>
<path d="M444.251 165.888L408.327 172.222C408.327 172.222 416.617 170.761 423.131 175.385C429.645 180.009 431.126 188.406 431.126 188.406L447.706 185.483L444.251 165.888Z" fill="#BCFBF7"/>
<rect x="0.446167" y="570.771" width="464.259" height="39.7937" rx="11" transform="rotate(-10 0.446167 570.771)" fill="#00A8DE"/>
<rect x="52.8956" y="524.482" width="258.659" height="56.3744" rx="11" transform="rotate(-10 52.8956 524.482)" fill="#00A8DE"/>
<rect x="211.956" y="509.905" width="384.672" height="23.213" rx="11" transform="rotate(-10 211.956 509.905)" fill="#2ABDEC"/>
<rect x="-10.4948" y="508.721" width="387.988" height="39.7937" rx="11" transform="rotate(-10 -10.4948 508.721)" fill="#00A8DE"/>
<rect x="0.067627" y="530.43" width="145.91" height="23.213" rx="11" transform="rotate(-10 0.067627 530.43)" fill="#2ABDEC"/>
<path d="M580.986 444.835L602.214 441.092C602.214 441.092 597.315 441.956 594.625 445.797C591.935 449.639 592.799 454.537 592.799 454.537L583.002 456.265L580.986 444.835Z" fill="#2ABDEC"/>
<path d="M438.058 493.608L480.513 486.122C480.513 486.122 470.716 487.849 465.336 495.533C459.956 503.216 461.683 513.013 461.683 513.013L442.089 516.468L438.058 493.608Z" fill="#00A8DE"/>
<rect x="570.195" y="689.183" width="444.363" height="89.5358" rx="11" transform="rotate(170 570.195 689.183)" fill="#004054"/>
<rect x="695.942" y="552.522" width="464.259" height="39.7937" rx="11" transform="rotate(170 695.942 552.522)" fill="#13516B"/>
<rect x="655.404" y="589.976" width="258.659" height="56.3744" rx="11" transform="rotate(170 655.404 589.976)" fill="#13516B"/>
<rect x="484.433" y="613.388" width="384.672" height="23.213" rx="11" transform="rotate(170 484.433 613.388)" fill="#004054"/>
<rect x="709.479" y="600.645" width="391.304" height="26.5291" rx="11" transform="rotate(170 709.479 600.645)" fill="#13516B"/>
<rect x="647.721" y="584.596" width="145.91" height="23.213" rx="11" transform="rotate(170 647.721 584.596)" fill="#004054"/>
<path d="M127.314 669.623L106.086 673.366C106.086 673.366 110.985 672.502 113.675 668.661C116.365 664.819 115.501 659.92 115.501 659.92L125.298 658.193L127.314 669.623Z" fill="#2ABDEC"/>
<path d="M258.331 629.685L215.876 637.171C215.876 637.171 225.673 635.443 231.053 627.76C236.433 620.077 234.705 610.279 234.705 610.279L254.3 606.824L258.331 629.685Z" fill="#13516B"/>
<rect x="-79.4383" y="365.982" width="384.672" height="39.7937" rx="11" transform="rotate(-10 -79.4383 365.982)" fill="#B2E8FF"/>
<rect x="-26.989" y="319.694" width="258.659" height="56.3744" rx="11" transform="rotate(-10 -26.989 319.694)" fill="#B2E8FF"/>
<rect x="184.323" y="295.903" width="109.433" height="23.213" rx="11" transform="rotate(-10 184.323 295.903)" fill="#8BDCFF"/>
<rect x="-54.456" y="297.598" width="427.782" height="39.7937" rx="11" transform="rotate(-10 -54.456 297.598)" fill="#B2E8FF"/>
<rect x="-48.3111" y="343.197" width="109.433" height="33.1614" rx="11" transform="rotate(-10 -48.3111 343.197)" fill="#8BDCFF"/>
<rect x="526.652" y="232.174" width="275.24" height="26.5291" rx="11" transform="rotate(-10 526.652 232.174)" fill="#B2E8FF"/>
<rect x="445.008" y="246.57" width="66.3228" height="26.5291" rx="11" transform="rotate(-10 445.008 246.57)" fill="#B2E8FF"/>
<rect x="595.612" y="260.422" width="96.168" height="26.5291" rx="11" transform="rotate(-10 595.612 260.422)" fill="#B2E8FF"/>
<rect x="213.888" y="425.381" width="222.181" height="19.8968" rx="9.94842" transform="rotate(170 213.888 425.381)" fill="#2ABDEC"/>
<path d="M197.559 428.261L233.483 421.926C233.483 421.926 225.193 423.388 219.173 421.563C213.152 419.739 212.412 415.54 212.412 415.54L195.832 418.463L197.559 428.261Z" fill="#2ABDEC"/>
<rect width="222.181" height="19.8968" rx="9.94842" transform="matrix(0.984808 -0.173648 -0.173648 -0.984808 530.667 369.525)" fill="#2ABDEC"/>
<path d="M546.996 366.646L511.072 372.98C511.072 372.98 519.362 371.518 524.395 367.744C529.428 363.971 528.688 359.772 528.688 359.772L545.268 356.848L546.996 366.646Z" fill="#2ABDEC"/>
</g>
</g>
<defs>
<clipPath id="clip0">
<rect width="693" height="693" fill="white"/>
</clipPath>
</defs>
</svg>
